<?xml version="1.0" ?>
<!-- Uploaded to: SVG Repo, www.svgrepo.com, Generator: SVG Repo Mixer Tools -->
<svg width="800px" height="800px" viewBox="0 0 128 128" id="Layer_1" version="1.1" xml:space="preserve" xmlns="http://www.w3.org/2000/svg" xmlns:xlink="http://www.w3.org/1999/xlink">
<style type="text/css">
	.st0{fill:#581166;}
	.st1{fill:#E83A3A;}
	.st2{fill:#FF5855;}
	.st3{opacity:0.5;}
	.st4{fill:#FFDA8E;}
	.st5{fill:#FFFFFF;}
	.st6{fill:#EABA65;}
	.st7{fill:#E6E6E6;}
	.st8{fill:#460A54;}
	.st9{fill:none;}
	.st10{fill:none;stroke:#581166;stroke-width:2;stroke-linecap:round;stroke-linejoin:round;stroke-miterlimit:10;}
	.st11{fill:#F2F2F2;}
</style>
<g>
<g>
<g>
<polygon class="st2" points="43.9,90.9 18.2,102.5 18.2,36.6 43.9,24.9    "/>
</g>
</g>
</g>
<g>
<g>
<g>
<polygon class="st2" points="43.9,90.9 69.6,102.5 69.6,36.6 43.9,24.9    "/>
</g>
</g>
</g>
<g>
<g>
<g>
<polygon class="st2" points="95.3,90.9 69.6,102.5 69.6,36.6 95.3,24.9    "/>
</g>
</g>
</g>
<g>
<g>
<g>
<polygon class="st2" points="95.3,90.9 69.6,102.5 69.6,36.6 95.3,24.9    "/>
</g>
</g>
</g>
<g>
<g>
<g>
<polygon class="st2" points="95.3,90.9 121,102.5 121,36.6 95.3,24.9    "/>
</g>
</g>
</g>
<g class="st3">
<g>
<g>
<polygon class="st0" points="43.9,90.9 69.6,102.5 69.6,36.6 43.9,24.9    "/>
</g>
</g>
</g>
<g class="st3">
<g>
<g>
<polygon class="st0" points="95.3,90.9 121,102.5 121,36.6 95.3,24.9    "/>
</g>
</g>
</g>
<g>
<g>
<g>
<path class="st0" d="M18.2,104.4c-0.4,0-0.7-0.1-1-0.3c-0.5-0.3-0.9-0.9-0.9-1.6V36.6c0-0.7,0.4-1.4,1.1-1.7l25.7-11.7     c0.6-0.3,1.3-0.2,1.8,0.1c0.5,0.3,0.9,0.9,0.9,1.6v66c0,0.7-0.4,1.4-1.1,1.7L19,104.2C18.8,104.3,18.5,104.4,18.2,104.4z      M20.1,37.8v61.8l21.9-9.9V27.8L20.1,37.8z M43.9,90.9L43.9,90.9L43.9,90.9z"/>
</g>
</g>
</g>
<g>
<g>
<g>
<path class="st0" d="M69.6,104.4c-0.3,0-0.5-0.1-0.8-0.2L43.2,92.6c-0.7-0.3-1.1-1-1.1-1.7v-66c0-0.6,0.3-1.2,0.9-1.6     c0.5-0.3,1.2-0.4,1.8-0.1l25.7,11.7c0.7,0.3,1.1,1,1.1,1.7v65.9c0,0.6-0.3,1.2-0.9,1.6C70.3,104.3,70,104.4,69.6,104.4z      M45.8,89.7l21.9,9.9V37.8l-21.9-10V89.7z"/>
</g>
</g>
</g>
<g>
<g>
<g>
<path class="st0" d="M69.6,104.4c-0.4,0-0.7-0.1-1-0.3c-0.5-0.3-0.9-0.9-0.9-1.6V36.6c0-0.7,0.4-1.4,1.1-1.7l25.7-11.7     c0.6-0.3,1.3-0.2,1.8,0.1c0.5,0.3,0.9,0.9,0.9,1.6v66c0,0.7-0.4,1.4-1.1,1.7l-25.7,11.6C70.1,104.3,69.9,104.4,69.6,104.4z      M71.5,37.8v61.8l21.9-9.9V27.8L71.5,37.8z M95.3,90.9L95.3,90.9L95.3,90.9z"/>
</g>
</g>
</g>
<g>
<g>
<g>
<path class="st0" d="M121,104.4c-0.3,0-0.5-0.1-0.8-0.2L94.5,92.6c-0.7-0.3-1.1-1-1.1-1.7v-66c0-0.6,0.3-1.2,0.9-1.6     c0.5-0.3,1.2-0.4,1.8-0.1l25.7,11.7c0.7,0.3,1.1,1,1.1,1.7v65.9c0,0.6-0.3,1.2-0.9,1.6C121.7,104.3,121.4,104.4,121,104.4z      M97.2,89.7l21.9,9.9V37.8l-21.9-10V89.7z"/>
</g>
</g>
</g>
<g>
<g>
<g>
<g>
<path class="st4" d="M69.6,20.4c-9.8,0-17.8,8-17.8,17.8c0,9.8,14.8,29.6,17.8,29.6c3,0,17.8-19.8,17.8-29.6      C87.4,28.4,79.4,20.4,69.6,20.4z M69.6,47c-5.7,0-10.2-4.6-10.2-10.2c0-5.7,4.6-10.2,10.2-10.2c5.6,0,10.2,4.6,10.2,10.2      C79.8,42.4,75.3,47,69.6,47z"/>
</g>
</g>
</g>
<g>
<g>
<g>
<circle class="st5" cx="69.6" cy="36.8" r="10.2"/>
</g>
</g>
</g>
<g>
<g>
<g>
<g>
<path class="st0" d="M69.6,69.7c-5,0-19.7-21.9-19.7-31.5c0-5.2,2-10.2,5.8-13.9c3.7-3.7,8.6-5.8,13.9-5.8c0,0,0,0,0,0       c10.8,0,19.7,8.8,19.7,19.7C89.3,47.8,74.6,69.7,69.6,69.7z M69.3,66L69.3,66L69.3,66z M69.9,66L69.9,66L69.9,66z M69.6,22.3       c-4.2,0-8.2,1.7-11.2,4.7c-3,3-4.7,7-4.7,11.2c0,8.3,12.5,25.6,15.9,27.6c3.4-2,15.9-19.3,15.9-27.6       C85.5,29.4,78.4,22.3,69.6,22.3L69.6,22.3C69.6,22.3,69.6,22.3,69.6,22.3z M69.6,48.9c-6.7,0-12.1-5.4-12.1-12.1       c0-6.7,5.4-12.1,12.1-12.1c6.7,0,12.1,5.4,12.1,12.1C81.7,43.5,76.3,48.9,69.6,48.9z M69.6,28.4c-4.6,0-8.4,3.7-8.4,8.4       c0,4.6,3.7,8.4,8.4,8.4c4.6,0,8.4-3.7,8.4-8.4C78,32.2,74.2,28.4,69.6,28.4z"/>
</g>
</g>
</g>
</g>
</g>
</svg>