<?xml version="1.0" encoding="iso-8859-1"?>
<!-- Uploaded to: SVG Repo, www.svgrepo.com, Generator: SVG Repo Mixer Tools -->
<svg height="800px" width="800px" version="1.1" id="Layer_1" xmlns="http://www.w3.org/2000/svg" xmlns:xlink="http://www.w3.org/1999/xlink" 
	 viewBox="0 0 480 480" xml:space="preserve">
<circle style="fill:#E4E2FE;" cx="352" cy="184" r="8"/>
<path style="fill:#BD852D;" d="M392,304l-20.08,140.56c-2.24,15.76-15.76,27.44-31.68,27.44H139.76
	c-15.92,0-29.44-11.68-31.68-27.44L88,304H392z"/>
<path style="fill:#F95754;" d="M408,264v40H72v-40c0-17.68,14.32-32,32-32h272C393.68,232,408,246.32,408,264z"/>
<path style="fill:#FA7976;" d="M376,232H104c-17.68,0-32,14.32-32,32v24c0-17.68,14.32-32,32-32h272c17.68,0,32,14.32,32,32v-24
	C408,246.32,393.68,232,376,232z"/>
<path style="fill:#B376DD;" d="M384,192v40H96v-40c0-17.68,14.32-32,32-32h224C369.68,160,384,174.32,384,192z"/>
<path style="fill:#C291E4;" d="M352,160H128c-17.68,0-32,14.32-32,32v24c0-17.68,14.32-32,32-32h224c17.68,0,32,14.32,32,32v-24
	C384,174.32,369.68,160,352,160z"/>
<path style="fill:#FCB23C;" d="M352,136v24H128v-24c0-26.48,21.52-48,48-48h128C330.48,88,352,109.52,352,136z"/>
<path style="fill:#FDC163;" d="M304,88H176c-26.48,0-48,21.52-48,48v24c0-26.48,21.52-48,48-48h128c26.48,0,48,21.52,48,48v-24
	C352,109.52,330.48,88,304,88z"/>
<path style="fill:#704B10;" d="M392,304l-8,56h-32v24c0,8.8-7.2,16-16,16c-4.4,0-8.4-1.76-11.28-4.72
	C321.76,392.4,320,388.4,320,384v-24h-32v24c0,8.8-7.2,16-16,16c-4.4,0-8.4-1.76-11.28-4.72C257.76,392.4,256,388.4,256,384v-24h-32
	v24c0,8.8-7.2,16-16,16c-4.4,0-8.4-1.76-11.28-4.72C193.76,392.4,192,388.4,192,384v-24h-32v24c0,8.8-7.2,16-16,16
	c-4.4,0-8.4-1.76-11.28-4.72C129.76,392.4,128,388.4,128,384v-24H96l-8-56H392z"/>
<circle style="fill:#F95754;" cx="240" cy="48" r="40"/>
<path style="fill:#FA7976;" d="M216,64c0-22.08,17.92-40,40-40c6.912,0,13.32,1.92,18.992,5.008C268.208,16.552,255.168,8,240,8
	c-22.08,0-40,17.92-40,40c0,15.168,8.552,28.208,21.008,34.992C217.92,77.32,216,70.912,216,64z"/>
<g>
	<circle style="fill:#FEF0D8;" cx="176" cy="112" r="8"/>
	<circle style="fill:#FEF0D8;" cx="208" cy="136" r="8"/>
	<circle style="fill:#FEF0D8;" cx="240" cy="112" r="8"/>
	<circle style="fill:#FEF0D8;" cx="272" cy="136" r="8"/>
	<circle style="fill:#FEF0D8;" cx="304" cy="112" r="8"/>
</g>
<g>
	<circle style="fill:#E4E2FE;" cx="128" cy="184" r="8"/>
	<circle style="fill:#E4E2FE;" cx="160" cy="208" r="8"/>
	<circle style="fill:#E4E2FE;" cx="192" cy="184" r="8"/>
	<circle style="fill:#E4E2FE;" cx="224" cy="208" r="8"/>
	<circle style="fill:#E4E2FE;" cx="256" cy="184" r="8"/>
	<circle style="fill:#E4E2FE;" cx="288" cy="184" r="8"/>
	<circle style="fill:#E4E2FE;" cx="320" cy="208" r="8"/>
</g>
<g>
	<path style="fill:#FEDDDD;" d="M160,232v24c0,8.8-7.2,16-16,16s-16-7.2-16-16v-24H160z"/>
	<path style="fill:#FEDDDD;" d="M224,232v24c0,8.8-7.2,16-16,16s-16-7.2-16-16v-24H224z"/>
	<path style="fill:#FEDDDD;" d="M288,232v24c0,8.8-7.2,16-16,16s-16-7.2-16-16v-24H288z"/>
	<path style="fill:#FEDDDD;" d="M352,232v24c0,8.8-7.2,16-16,16s-16-7.2-16-16v-24H352z"/>
</g>
<path style="fill:#132C47;" d="M432,296h-16v-32c0-16.36-9.896-30.416-24-36.608V192c0-19.312-13.768-35.472-32-39.192V136
	c0-30.872-25.128-56-56-56h-28.32c5.936-6.616,10.056-14.864,11.6-24H312c4.424,0,8-3.576,8-8s-3.576-8-8-8h-24.72
	C283.448,17.336,263.736,0,240,0c-26.472,0-48,21.528-48,48c0,12.304,4.688,23.496,12.32,32H176c-30.88,0-56,25.128-56,56v16.808
	c-18.232,3.72-32,19.872-32,39.192v35.392C73.896,233.584,64,247.64,64,264v32H48c-4.416,0-8,3.576-8,8s3.584,8,8,8h24h9.064
	l19.096,133.688c2.784,19.56,19.808,34.312,39.6,34.312h200.48c19.792,0,36.824-14.752,39.6-34.304L398.944,312H408h24
	c4.424,0,8-3.576,8-8S436.424,296,432,296z M208,48c0-17.648,14.352-32,32-32s32,14.352,32,32s-14.352,32-32,32S208,65.648,208,48z
	 M136,136c0-22.056,17.944-40,40-40h128c22.056,0,40,17.944,40,40v16H136V136z M104,192c0-13.232,10.768-24,24-24h224
	c13.232,0,24,10.768,24,24v32H104V192z M328,240h16v16c0,4.416-3.584,8-8,8s-8-3.584-8-8V240z M264,240h16v16c0,4.416-3.584,8-8,8
	s-8-3.584-8-8V240z M200,240h16v16c0,4.416-3.592,8-8,8s-8-3.584-8-8V240z M136,240h16v16c0,4.416-3.592,8-8,8s-8-3.584-8-8V240z
	 M377.064,352H352c-4.424,0-8,3.576-8,8v24c0,4.416-3.584,8-8,8c-2.136,0-4.112-0.824-5.704-2.456
	C328.824,388.112,328,386.136,328,384v-24c0-4.424-3.576-8-8-8h-32c-4.424,0-8,3.576-8,8v24c0,4.416-3.584,8-8,8
	c-2.136,0-4.112-0.824-5.704-2.456C264.824,388.112,264,386.136,264,384v-24c0-4.424-3.576-8-8-8h-32c-4.416,0-8,3.576-8,8v24
	c0,4.416-3.592,8-8,8c-2.136,0-4.104-0.824-5.696-2.448C200.816,388.104,200,386.136,200,384v-24c0-4.424-3.584-8-8-8h-32
	c-4.416,0-8,3.576-8,8v24c0,4.416-3.592,8-8,8c-2.136,0-4.104-0.824-5.696-2.448C136.816,388.104,136,386.136,136,384v-24
	c0-4.424-3.584-8-8-8h-25.064l-5.712-40h285.552L377.064,352z M364,443.44c-1.664,11.72-11.88,20.56-23.76,20.56H139.76
	c-11.88,0-22.096-8.84-23.768-20.568L105.224,368H120v16c0,6.488,2.536,12.52,6.992,16.856c4.48,4.616,10.52,7.144,17.008,7.144
	c13.232,0,24-10.768,24-24v-16h16v16c0,6.488,2.536,12.52,6.992,16.856c4.48,4.616,10.52,7.144,17.008,7.144
	c13.232,0,24-10.768,24-24v-16h16v16c0,6.496,2.528,12.528,6.984,16.856C259.472,405.472,265.504,408,272,408
	c13.232,0,24-10.768,24-24v-16h16v16c0,6.496,2.528,12.528,6.984,16.856C323.472,405.472,329.504,408,336,408
	c13.232,0,24-10.768,24-24v-16h14.776L364,443.44z M392,296H88h-8v-32c0-13.232,10.768-24,24-24h16v16c0,13.232,10.768,24,24,24
	s24-10.768,24-24v-16h16v16c0,13.232,10.768,24,24,24s24-10.768,24-24v-16h16v16c0,13.232,10.768,24,24,24s24-10.768,24-24v-16h16
	v16c0,13.232,10.768,24,24,24s24-10.768,24-24v-16h16c13.232,0,24,10.768,24,24v32H392z"/>
</svg>